<svg width="24" height="24" viewBox="0 0 24 24" fill="none" xmlns="http://www.w3.org/2000/svg">
<path d="M8.29714 5C5.43683 5 3 7.151 3 9.94462C3 11.8718 3.89727 13.4943 5.08645 14.8384C6.27154 16.1778 7.80049 17.3021 9.18272 18.2431L11.5676 19.8666C11.8288 20.0445 12.1712 20.0445 12.4324 19.8666L14.8173 18.2431C16.1995 17.3021 17.7285 16.1778 18.9136 14.8384C20.1027 13.4943 21 11.8718 21 9.94462C21 7.151 18.5632 5 15.7029 5C14.2284 5 12.931 5.69532 12 6.595C11.069 5.69532 9.77157 5 8.29714 5Z" fill="black"/>
</svg>
