<svg width="24" height="24" viewBox="0 0 24 24" fill="none" xmlns="http://www.w3.org/2000/svg">
<path d="M6 8C6.55228 8 7 7.55228 7 7C7 6.44772 6.55228 6 6 6C5.44772 6 5 6.44772 5 7C5 7.55228 5.44772 8 6 8Z" fill="black"/>
<path d="M6 13C6.55228 13 7 12.5523 7 12C7 11.4477 6.55228 11 6 11C5.44772 11 5 11.4477 5 12C5 12.5523 5.44772 13 6 13Z" fill="black"/>
<path d="M7 17C7 17.5523 6.55228 18 6 18C5.44772 18 5 17.5523 5 17C5 16.4477 5.44772 16 6 16C6.55228 16 7 16.4477 7 17Z" fill="black"/>
<path d="M9 6C8.44772 6 8 6.44772 8 7C8 7.55228 8.44772 8 9 8H18C18.5523 8 19 7.55228 19 7C19 6.44772 18.5523 6 18 6H9Z" fill="black"/>
<path d="M8 12C8 11.4477 8.44772 11 9 11H18C18.5523 11 19 11.4477 19 12C19 12.5523 18.5523 13 18 13H9C8.44772 13 8 12.5523 8 12Z" fill="black"/>
<path d="M9 16C8.44772 16 8 16.4477 8 17C8 17.5523 8.44772 18 9 18H16C16.5523 18 17 17.5523 17 17C17 16.4477 16.5523 16 16 16H9Z" fill="black"/>
</svg>
