<svg width="202" height="80" viewBox="0 0 202 80" fill="none" xmlns="http://www.w3.org/2000/svg">
<g clip-path="url(#clip0_1536_1103)">
<path d="M74.5337 38.0737V53.2096H70.9585V38.0737H74.5337ZM83.1716 38.0737L77.7814 47.1965H73.906L73.4693 43.9079H75.9392L78.8185 38.0737H83.1716ZM79.4326 53.2096L75.9256 46.6049L78.5456 44.1694L83.6901 53.2096H79.4326Z" fill="#F7EBDE"/>
<path d="M87.9887 47.5953L93.3652 38.0735H96.9814V53.2094H93.3652V43.6463L87.9887 53.1681H84.3862V38.0322H87.9887V47.5953Z" fill="#F7EBDE"/>
<path d="M105.155 48.0359H101.43V45.2839H105.155C105.58 45.3042 106.003 45.2142 106.383 45.0225C106.685 44.8655 106.929 44.6146 107.079 44.307C107.231 43.98 107.306 43.6221 107.298 43.2612C107.306 42.8692 107.232 42.4798 107.079 42.1191C106.935 41.7685 106.693 41.4675 106.383 41.2523C106.013 41.0281 105.586 40.9181 105.155 40.9358H102.794V53.2234H99.1782V38.0875H105.155C106.225 38.0597 107.286 38.2859 108.253 38.748C109.078 39.1504 109.773 39.7801 110.259 40.5643C110.73 41.3625 110.971 42.2774 110.955 43.2062C110.975 44.1051 110.733 44.9901 110.259 45.7517C109.766 46.4993 109.069 47.0871 108.253 47.4442C107.276 47.8692 106.218 48.0712 105.155 48.0359Z" fill="#F7EBDE"/>
<path d="M125.46 38.0735V53.2094H121.844V40.8805H116.468V53.1681H112.879V38.0322L125.46 38.0735Z" fill="#F7EBDE"/>
<path d="M131.124 47.5953L136.459 38.0735H140.062V53.2094H136.459V43.6463L131.083 53.1681H127.521V38.0322H131.124V47.5953Z" fill="#F7EBDE"/>
<path d="M142.258 38.0737H145.861V42.6558C145.848 43.1323 145.951 43.6047 146.161 44.0318C146.358 44.3676 146.668 44.6214 147.034 44.7473C147.507 44.896 148 44.9657 148.495 44.9537H149.15L150.064 44.8711C150.366 44.8462 150.667 44.8048 150.965 44.7473C151.179 44.7213 151.389 44.6705 151.592 44.5959V47.3479C151.38 47.4235 151.161 47.4743 150.937 47.4993L149.996 47.6369H149.095H148.495C147.378 47.6632 146.267 47.4765 145.22 47.0865C144.333 46.7694 143.568 46.1768 143.036 45.394C142.487 44.5301 142.215 43.5161 142.258 42.4907V38.0737ZM150.883 38.0737H154.499V53.2096H150.883V38.0737Z" fill="#F7EBDE"/>
<path d="M160.339 38.0737V53.2096H156.737V38.0737H160.339ZM166.821 44.0318V46.7837H159.138V44.0318H166.821ZM169.209 38.0737V53.2096H165.607V38.0737H169.209Z" fill="#F7EBDE"/>
<path d="M173.767 43.261H176.987C178.074 43.2358 179.154 43.447 180.153 43.8802C180.996 44.2364 181.721 44.8284 182.241 45.5864C182.742 46.3477 182.999 47.2459 182.978 48.1595C182.981 48.8564 182.837 49.5461 182.555 50.1822C182.271 50.7939 181.856 51.3344 181.34 51.7646C180.79 52.2361 180.149 52.5875 179.457 52.7966C178.659 53.054 177.825 53.1795 176.987 53.1681H171.529V38.0322H175.145V50.3611H177.001C177.475 50.3932 177.948 50.2881 178.365 50.0584C178.707 49.8746 178.99 49.5981 179.184 49.2603C179.367 48.9129 179.46 48.5251 179.457 48.132C179.462 47.7605 179.368 47.3944 179.184 47.0725C178.988 46.7506 178.703 46.4927 178.365 46.3294C177.941 46.1238 177.471 46.0292 177.001 46.0542H173.78L173.767 43.261ZM187.658 38.0735V53.2094H184.056V38.0735H187.658Z" fill="#F7EBDE"/>
<path d="M193.485 38.0737V53.2096H189.882V38.0737H193.485ZM200.212 38.0737V40.8257H192.202V38.0737H200.212ZM199.23 44.0318V46.7837H192.27V44.0318H199.23ZM200.253 50.3338V53.0858H192.27V50.3338H200.253Z" fill="#F7EBDE"/>
<path d="M83.5264 59.3052V74.4411H79.9102V62.1122H74.5337V74.3998H70.9585V59.2639L83.5264 59.3052Z" fill="#F7EBDE"/>
<path d="M89.394 59.3052V74.4411H85.7778V59.3052H89.394ZM96.1214 59.3052V62.0572H88.1113V59.3052H96.1214ZM95.057 65.2907V68.0427H88.1113V65.2907H95.057ZM96.0805 71.5515V74.3035H88.1113V71.5515H96.0805Z" fill="#F7EBDE"/>
<path d="M97.7999 59.3052H101.416V63.8872C101.399 64.3625 101.498 64.8348 101.703 65.2632C101.9 65.5991 102.21 65.8528 102.576 65.9787C103.048 66.1275 103.541 66.1972 104.036 66.1851H104.691L105.605 66.1026C105.908 66.0785 106.208 66.0372 106.506 65.9787C106.72 65.9527 106.931 65.902 107.134 65.8274V68.5793C106.909 68.6756 106.676 68.7493 106.438 68.7995L105.496 68.9233H104.596C104.396 68.9337 104.195 68.9337 103.995 68.9233C102.879 68.9484 101.768 68.7617 100.72 68.3729C99.8331 68.0559 99.0687 67.4633 98.5367 66.6805C97.987 65.8166 97.7153 64.8026 97.7589 63.7771L97.7999 59.3052ZM106.424 59.3052H110.04V74.4411H106.438L106.424 59.3052Z" fill="#F7EBDE"/>
<path d="M115.676 68.7995L121.053 59.2777H124.669V74.4136H121.053V64.878L115.676 74.3998H112.074V59.2639H115.676V68.7995Z" fill="#F7EBDE"/>
<path d="M50.3396 5.5039C50.4811 5.50662 50.6201 5.46662 50.7389 5.38906C50.8577 5.3115 50.9507 5.1999 51.0061 5.06861C51.0615 4.93732 51.0767 4.79233 51.0497 4.65227C51.0228 4.5122 50.9549 4.38346 50.8549 4.28257C50.7548 4.18168 50.6272 4.11326 50.4883 4.08609C50.3494 4.05892 50.2056 4.07425 50.0754 4.1301C49.9452 4.18595 49.8345 4.27978 49.7576 4.39953C49.6806 4.51929 49.641 4.65949 49.6437 4.80214C49.6437 4.98826 49.717 5.16675 49.8475 5.29836C49.978 5.42996 50.155 5.5039 50.3396 5.5039Z" fill="#F7EBDE"/>
<path d="M40.7739 2.61428C41.0454 2.61428 41.3057 2.50555 41.4976 2.31201C41.6895 2.11848 41.7974 1.85599 41.7974 1.58228C41.7974 1.30858 41.6895 1.04609 41.4976 0.852556C41.3057 0.65902 41.0454 0.550293 40.7739 0.550293C40.5025 0.550293 40.2422 0.65902 40.0502 0.852556C39.8583 1.04609 39.7505 1.30858 39.7505 1.58228C39.7505 1.85599 39.8583 2.11848 40.0502 2.31201C40.2422 2.50555 40.5025 2.61428 40.7739 2.61428Z" fill="#F7EBDE"/>
<path d="M37.4852 4.12809C37.5395 4.11828 37.5913 4.09751 37.6374 4.06704C37.6835 4.03656 37.723 3.99701 37.7536 3.95075C37.7842 3.90449 37.8052 3.85247 37.8154 3.79782C37.8255 3.74318 37.8246 3.68702 37.8127 3.63273C37.7928 3.52144 37.7299 3.42269 37.6377 3.35818C37.5456 3.29367 37.4319 3.26869 37.3215 3.28874C37.2136 3.31196 37.119 3.37674 37.0579 3.46927C36.9967 3.5618 36.9738 3.67477 36.994 3.78409C37.0139 3.89538 37.0769 3.99414 37.169 4.05864C37.2611 4.12315 37.3749 4.14813 37.4852 4.12809Z" fill="#F7EBDE"/>
<path d="M32.9274 17.4199C32.7428 17.4199 32.5658 17.4939 32.4353 17.6255C32.3048 17.7571 32.2314 17.9356 32.2314 18.1217C32.2738 18.2712 32.3633 18.4027 32.4864 18.4964C32.6095 18.59 32.7595 18.6407 32.9137 18.6407C33.0679 18.6407 33.218 18.59 33.3411 18.4964C33.4642 18.4027 33.5537 18.2712 33.596 18.1217C33.5962 17.9402 33.5266 17.7658 33.4019 17.6349C33.2773 17.5041 33.1072 17.427 32.9274 17.4199Z" fill="#F7EBDE"/>
<path d="M30.6348 12.783C30.0958 12.0086 29.7777 11.1 29.7151 10.1561C29.6525 9.2121 29.8478 8.2689 30.2797 7.42905C30.7116 6.58919 31.3637 5.88484 32.1649 5.39259C32.9661 4.90034 33.8859 4.63904 34.8241 4.63712C35.257 4.63508 35.6883 4.6906 36.1068 4.80223C35.4816 3.90353 34.5885 3.2293 33.5572 2.87754C32.5259 2.52579 31.4103 2.51484 30.3724 2.84629C29.3346 3.17774 28.4286 3.83432 27.7862 4.72058C27.1438 5.60685 26.7984 6.67661 26.8003 7.77437C26.802 8.9188 27.179 10.0305 27.8726 10.9364C28.5661 11.8423 29.5373 12.4916 30.6348 12.783Z" fill="#F7EBDE"/>
<path d="M30.021 10.0172C30.0219 10.9827 30.2908 11.9288 30.7973 12.7483C31.3037 13.5677 32.0274 14.228 32.8866 14.6543C32.4477 14.1859 32.1139 13.6277 31.9081 13.0176C31.7024 12.4075 31.6294 11.7598 31.6941 11.1187C31.7588 10.4776 31.9598 9.8581 32.2833 9.30235C32.6069 8.7466 33.0453 8.26767 33.5689 7.89815C33.1432 8.27978 32.7992 8.74494 32.5579 9.2652C32.3165 9.78545 32.1829 10.3499 32.1652 10.924C32.1475 11.498 32.2461 12.0697 32.455 12.6041C32.6639 13.1385 32.9786 13.6242 33.38 14.0318C33.7813 14.4393 34.2609 14.76 34.7894 14.9743C35.3179 15.1887 35.8841 15.292 36.4536 15.2782C37.023 15.2643 37.5837 15.1335 38.1013 14.8937C38.6189 14.654 39.0825 14.3103 39.4639 13.8837C39.0575 13.2614 38.8091 12.5479 38.7407 11.806C38.9219 11.9366 39.1136 12.0517 39.3138 12.15C39.451 13.3224 40.0104 14.4032 40.8859 15.187C41.7613 15.9709 42.8918 16.4031 44.0626 16.4018C44.3741 16.3977 44.6847 16.3655 44.9905 16.3054C45.2551 16.6325 45.6364 16.8417 46.0524 16.888C46.4684 16.9343 46.8859 16.8141 47.2148 16.5531C47.4372 16.3376 47.589 16.0587 47.65 15.7538C47.711 15.4489 47.6781 15.1325 47.556 14.8469C48.1212 14.2197 48.5128 13.4535 48.6915 12.6253C48.8701 11.7971 48.8295 10.9362 48.5737 10.1288C48.3179 9.32151 47.8559 8.59628 47.2341 8.026C46.6123 7.45571 45.8527 7.06045 45.0315 6.87992C44.7689 6.18742 44.3303 5.5768 43.7596 5.10939C43.1889 4.64198 42.5062 4.33425 41.7802 4.21712C41.0542 4.09999 40.3105 4.17758 39.6236 4.44211C38.9368 4.70663 38.3311 5.14876 37.8674 5.72409C37.0345 5.16601 36.0563 4.86915 35.0563 4.87098C33.7158 4.8926 32.4372 5.44389 31.4955 6.40627C30.5539 7.36865 30.0244 8.66524 30.021 10.0172Z" fill="#F7EBDE"/>
<path d="M6.08588 74.1383C6.50891 74.1383 6.56349 73.8631 6.16776 73.698C4.82575 73.7306 3.48859 73.8733 2.16952 74.1246C1.83554 74.1969 1.50719 74.2935 1.18701 74.4135C1.28253 74.6337 1.50087 74.73 1.96483 74.7025C3.34921 74.6049 4.72581 74.4164 6.08588 74.1383Z" fill="#F7EBDE"/>
<path d="M4.09352 70.8772C4.29821 70.8772 4.40738 70.7258 4.27092 70.6157C4.17242 70.5313 4.05578 70.4712 3.93025 70.4402C3.80471 70.4091 3.67373 70.408 3.54769 70.4368C2.76987 70.5194 1.97841 70.6157 1.22789 70.7396C1.0088 70.758 0.802186 70.8501 0.641113 71.001C0.641113 71.1248 0.791218 71.2624 0.914031 71.4413C1.98807 71.3465 3.05191 71.1578 4.09352 70.8772Z" fill="#F7EBDE"/>
<path d="M56.9307 50.719C56.9307 50.4438 56.535 50.4713 56.5213 50.2512C56.4937 49.848 56.4937 49.4434 56.5213 49.0403H56.1938V49.742C56.1938 50.2649 56.2757 51.118 56.3303 52.0537C56.5213 55.6313 56.8625 61.6856 57.1354 66.1438C57.1354 67.0245 57.2446 67.8501 57.2992 68.5793C57.3537 69.3086 57.3947 70.148 57.4356 70.6984C57.4469 71.0771 57.4879 71.4544 57.5584 71.8267C57.5584 71.8267 57.7358 71.8267 57.8859 71.6478L58.0906 71.4551L58.1861 71.3588L58.4181 71.1111L58.5546 70.9323C58.5546 70.9323 58.0497 67.2997 57.8996 65.6485C57.2309 57.8879 57.0126 53.87 56.9307 50.719Z" fill="#F7EBDE"/>
<path d="M54.3923 69.1297C54.3994 68.9968 54.3994 68.8636 54.3923 68.7307C54.3923 64.8229 52.3181 61.8508 49.6981 62.1122C47.0781 62.3736 44.772 65.8962 44.772 69.9966C44.772 70.148 44.772 70.2856 44.772 70.4232L54.3923 69.1297Z" fill="#F7EBDE"/>
<path d="M49.5619 36.5599L46.7099 36.4636C46.5598 36.4636 46.437 36.6287 46.437 36.8627V38.5964C46.437 38.8166 46.5598 39.0092 46.7099 39.0092H49.5619C49.712 39.0092 49.8348 38.8303 49.8348 38.6102V38.1148H48.7978C48.634 38.1148 48.4975 37.9084 48.4975 37.6607C48.4975 37.4131 48.634 37.2067 48.7978 37.2067H50.5308C50.6945 37.2067 50.831 37.4268 50.831 37.6745C50.84 37.761 50.8227 37.8482 50.7812 37.9244C50.7398 38.0006 50.6762 38.0623 50.599 38.1011C50.7586 38.0708 50.9004 37.9794 50.9945 37.8459C51.0887 37.7125 51.1279 37.5475 51.1039 37.3855C51.1039 37.2204 50.8173 37.0691 50.5444 37.0691H49.8348V36.9727C49.8348 36.7526 49.712 36.5599 49.5619 36.5599Z" fill="#F7EBDE"/>
<path d="M54.5835 35.5281C54.4471 35.5281 54.3379 35.6932 54.3379 35.9134V40.0413C54.3379 40.2615 54.4471 40.4404 54.5835 40.4404H55.9481C56.0846 40.4404 56.2074 40.2615 56.2074 40.0551V35.9271C56.2074 35.7207 56.0846 35.5418 55.9481 35.5281H54.9383H55.0884C55.0884 35.5281 55.0884 35.707 55.0884 35.9134V39.9037C55.0884 40.1101 55.0884 40.2752 55.0884 40.2752H54.6654C54.6654 40.2752 54.5835 40.0551 54.5835 39.9037V36.3674C54.5604 36.0881 54.5604 35.8074 54.5835 35.5281Z" fill="#F7EBDE"/>
<path d="M42.6434 40.2614C42.7935 40.2614 42.9299 40.0687 42.9299 39.8486V35.4729C42.9299 35.239 42.7935 35.0464 42.6434 35.0464H41.0468C40.8831 35.0464 40.7603 35.2253 40.7603 35.4592V39.8761C40.7603 40.11 40.8831 40.3027 41.0468 40.3027L42.6434 40.2614ZM40.8558 39.4908V35.5417C40.8558 35.3353 40.8558 35.1702 40.9513 35.184H41.4016C41.4016 35.184 41.4835 35.3629 41.4835 35.9821V39.9036C41.4835 39.6972 41.4835 39.9036 41.4016 39.9036H40.9376C40.9376 39.9036 40.8558 39.6972 40.8558 39.4908Z" fill="#F7EBDE"/>
<path d="M42.0293 75.5418C39.191 75.4042 36.3526 75.3217 33.4733 75.3905C29.7617 75.4868 26.1046 75.6794 22.3383 75.8996C22.1473 76.3949 22.4884 76.5738 23.4027 76.4912C24.5411 76.383 25.6845 76.3371 26.8278 76.3536C27.014 76.3678 27.2011 76.3678 27.3873 76.3536C29.7617 76.1335 32.2043 76.0922 34.6196 76.0647C38.0038 76.0647 41.4425 76.0647 44.7721 76.2436C45.5482 76.3188 46.3296 76.3188 47.1056 76.2436L46.7781 75.872C45.1815 75.6794 43.6668 75.6794 42.0293 75.5418Z" fill="#F7EBDE"/>
<path d="M17.2213 73.464C16.1569 73.464 15.0653 73.6016 14.0418 73.7254C11.6674 74.0144 9.34763 74.3721 6.97324 74.6473C5.06282 74.8675 3.28886 75.2253 1.41937 75.4729C0.94019 75.5716 0.466481 75.6957 0.00019774 75.8445C-0.108969 75.8445 -0.245428 75.8445 -0.27272 75.9408C-0.300012 76.0371 -0.409179 76.1472 -0.381887 76.2297C-0.354595 76.3123 -0.0543858 76.3811 0.204886 76.3811C0.758673 76.381 1.31132 76.3304 1.85604 76.2297C3.45261 75.8995 5.03553 75.5693 6.71397 75.3353C9.66148 74.9225 12.6772 74.5785 15.6657 74.207C16.4435 74.1107 17.2213 73.9869 17.9855 73.863C18.2857 73.863 18.4631 73.6842 18.2993 73.5053C17.9412 73.469 17.5811 73.4552 17.2213 73.464Z" fill="#F7EBDE"/>
<path d="M16.184 75.0327C15.1586 74.9385 14.1252 74.9895 13.1137 75.1841C11.8174 75.3905 10.5074 75.5831 9.2383 75.8033C8.77691 75.9013 8.32133 76.0253 7.87371 76.1748C7.85196 76.1787 7.83167 76.1884 7.81496 76.203C7.79825 76.2176 7.78575 76.2364 7.77876 76.2575C7.77178 76.2787 7.77057 76.3013 7.77528 76.3231C7.77998 76.3448 7.79041 76.3649 7.80548 76.3812C7.95233 76.4424 8.11067 76.4706 8.26944 76.4637C10.8758 76.3261 13.2911 75.9409 15.7474 75.6106H15.9248C16.3751 75.4455 16.5388 75.2804 16.184 75.0327Z" fill="#F7EBDE"/>
<path d="M63.8763 75.0463C61.4256 74.3832 58.9164 73.9638 56.3847 73.7942C56.1391 73.7942 55.8252 73.7942 55.8252 73.9318C55.8252 74.0694 55.9344 74.1382 56.0981 74.1795C56.6167 74.3308 57.1761 74.4547 57.7493 74.5647L63.2076 75.5142C63.4942 75.5142 63.808 75.5142 64.0264 75.6105C64.1696 75.6046 64.3116 75.5815 64.4494 75.5417C64.5313 75.5417 64.5859 75.3903 64.5176 75.3353C64.3245 75.1978 64.1067 75.0996 63.8763 75.0463Z" fill="#F7EBDE"/>
<path d="M31.8084 32.4734H30.9896L27.7146 32.6247C27.4912 32.6491 27.2862 32.7606 27.1434 32.9355C27.0006 33.1104 26.9313 33.3347 26.9504 33.5604V43.2887C26.7049 42.7889 26.3312 42.3645 25.8681 42.0597C25.4049 41.7548 24.8693 41.5805 24.3168 41.5549C23.7126 40.7567 22.9125 40.131 21.9955 39.7395C21.0784 39.3479 20.0761 39.2041 19.0871 39.3222C18.0982 39.4402 17.1568 39.8161 16.3558 40.4127C15.5547 41.0093 14.9217 41.8061 14.519 42.7245C12.6359 42.7245 11.053 43.3437 10.6436 44.1831C10.6411 44.2197 10.6411 44.2565 10.6436 44.2931H10.7391C11.012 44.9123 12.2675 47.7469 13.2363 47.7193C13.8777 47.7193 14.096 46.6736 15.406 46.2333C16.716 45.793 18.1352 44.9811 20.2639 44.3619H21.5603V44.4445C20.0651 44.7874 18.6104 45.2902 17.2209 45.9443C16.6205 46.2058 16.061 46.4534 15.5425 46.6186C15.0597 46.7915 14.6312 47.0907 14.3007 47.4854C14.1777 47.6577 14.021 47.8027 13.8403 47.9115C13.6596 48.0204 13.4587 48.0908 13.25 48.1184C12.0628 48.1184 10.8619 45.559 10.4116 44.4995V57.1036L38.9588 61.0252V32.7073L31.8084 32.4734Z" fill="#F7EBDE"/>
<path d="M63.9172 70.2993L59.7007 69.5701V59.7042C59.7398 59.3838 59.6532 59.0607 59.4595 58.8036C59.2658 58.5466 58.9802 58.376 58.6636 58.3282V47.9258C59.035 47.6717 59.3355 47.3257 59.5362 46.9209C59.7369 46.5161 59.8311 46.0662 59.8098 45.6141C59.7212 44.727 59.3192 43.9017 58.6772 43.2887V32.666L56.1118 32.5422V29.9416C56.1247 29.6363 56.0365 29.3354 55.8611 29.0862C55.6857 28.8371 55.433 28.6539 55.1429 28.5656V25.9237C55.1488 25.6766 55.0885 25.4325 54.9684 25.217C54.8484 25.0015 54.673 24.8226 54.4606 24.6991V19.9381C54.4671 19.6162 54.3614 19.3022 54.1619 19.0508C53.9624 18.7994 53.6818 18.6265 53.369 18.5622L43.8169 17.4338H43.6667C43.4966 17.4332 43.3285 17.4712 43.175 17.5451C43.0214 17.6189 42.8863 17.7267 42.7798 17.8604L36.0523 18.631C35.8284 18.671 35.6268 18.7927 35.4859 18.9728C35.345 19.1529 35.2746 19.3789 35.2882 19.6079V24.6303L34.0328 24.7403C33.8085 24.7744 33.6053 24.8925 33.4636 25.0711C33.322 25.2496 33.2523 25.4755 33.2686 25.7035V28.7445L31.7675 28.8408C31.5419 28.8717 31.3367 28.989 31.1944 29.1683C31.0522 29.3476 30.9838 29.5752 31.0034 29.804V32.1707L41.7427 32.8174H40.4736L41.9337 32.8862L55.0611 33.4228L54.9792 33.4916L57.7084 33.6292V41.0871C57.5514 41.0971 57.3981 41.1388 57.2574 41.2097C57.1168 41.2806 56.9917 41.3793 56.8896 41.4999C56.7966 41.6457 56.7406 41.8122 56.7263 41.985C56.712 42.1577 56.74 42.3313 56.8077 42.4906C56.9899 42.9187 57.2336 43.3174 57.531 43.674L57.7084 43.9216V47.0589C57.3151 47.3875 56.8456 47.61 56.3438 47.7056H56.0981C55.293 47.623 53.7374 46.8112 53.7647 46.0269C53.8354 45.2193 54.118 44.4451 54.5835 43.784C54.845 43.3965 55.0431 42.9691 55.1702 42.5181C55.2223 42.3616 55.2359 42.1946 55.2097 42.0316C55.1836 41.8686 55.1185 41.7145 55.0201 41.5825C54.9228 41.4682 54.8009 41.3779 54.6638 41.3183C54.5266 41.2587 54.3778 41.2314 54.2287 41.2385C54.0817 41.233 53.936 41.2662 53.8056 41.3348C53.7083 41.3911 53.6286 41.4738 53.5755 41.5736C53.5225 41.6733 53.4982 41.786 53.5054 41.8989C53.5156 42.0535 53.583 42.1987 53.6941 42.3057C53.8053 42.4127 53.9522 42.4737 54.1058 42.4768C54.0305 42.7823 53.8694 43.0594 53.6419 43.2749C52.9633 44.0024 52.5788 44.9594 52.5639 45.9581C52.5566 46.0359 52.5566 46.1142 52.5639 46.192C51.6897 45.4477 50.5831 45.0384 49.439 45.0362C45.6863 45.0362 42.5478 49.7421 42.5478 55.4662C42.5478 55.6726 42.5478 55.8652 42.5478 56.0716L55.6888 55.2323C55.6888 56.1404 55.7979 57.1586 55.8662 58.2319L38.7952 60.9839L55.948 59.429C56.0845 61.6994 56.221 64.1349 56.3574 66.2127C56.3574 67.107 56.4666 67.9189 56.5075 68.6482C56.5758 69.6664 56.6167 70.2993 56.6576 70.7809C56.6576 70.9185 56.6576 71.0424 56.6576 71.1525L38.8361 73.7806C38.6724 73.7806 38.5359 73.6292 38.5359 73.3953V61.4793C38.5359 61.2453 38.6724 61.0389 38.8361 61.0252L11.1077 58.2732H10.2889H9.79767C9.70611 58.2818 9.61715 58.3086 9.53593 58.3521C9.45471 58.3956 9.38284 58.4548 9.32447 58.5265C9.2661 58.5981 9.2224 58.6807 9.19587 58.7695C9.16935 58.8583 9.16054 58.9515 9.16996 59.0438V63.1717L8.58318 63.268L14.0415 62.4012C14.3636 62.3668 14.6883 62.3668 15.0104 62.4012L38.0719 65.7173C38.3721 65.7173 38.3858 65.8274 38.0719 65.8687L33.8144 66.7768C33.4384 66.825 33.0578 66.825 32.6818 66.7768L8.47402 63.2956H8.93798C8.79474 63.4318 8.68454 63.5995 8.61591 63.7856C8.54729 63.9717 8.52208 64.1713 8.54225 64.3688C8.54225 64.933 8.74693 65.5247 9.1836 65.6485V69.2123C9.16155 69.3213 9.16155 69.4336 9.1836 69.5425L7.47787 69.7352H7.30047C7.01391 69.7352 6.67276 69.8453 6.67276 69.9966C6.67276 70.148 6.78193 70.2168 6.83651 70.3406C7.13672 70.3406 7.32776 70.3406 7.50516 70.3406L10.0706 70.1755C10.1344 70.3351 10.2362 70.4764 10.3672 70.5868C10.4981 70.6972 10.654 70.7734 10.8211 70.8085H10.9166C11.071 70.8024 11.221 70.7544 11.3506 70.6697C11.4803 70.5849 11.5849 70.4665 11.6535 70.3269L14.4646 70.7397C12.7861 70.9048 11.1213 71.0974 9.45652 71.3038C7.20495 71.5653 5.03525 71.9505 2.83827 72.2945C2.45636 72.3669 2.07834 72.4588 1.70566 72.5697C1.58285 72.5697 1.47368 72.7211 1.51462 72.7761C1.63646 72.8899 1.78793 72.9662 1.95128 72.9963C2.19571 73.0309 2.44374 73.0309 2.68816 72.9963C3.72525 72.8587 4.80327 72.7624 5.77213 72.5697C8.58318 71.9918 11.6808 71.7579 14.6283 71.3589C15.488 71.2488 16.3613 71.18 17.2483 71.1249L20.5233 71.6065L19.7728 71.6753C18.108 71.8404 16.4705 72.0744 14.7784 72.1982C13.0863 72.322 11.3669 72.6385 9.64756 72.8312C9.01408 72.9231 8.38557 73.0471 7.76443 73.2027C7.50516 73.2027 7.39599 73.5329 7.62797 73.6292C7.83429 73.6999 8.05154 73.7325 8.26933 73.7256C8.82669 73.6992 9.38235 73.644 9.93413 73.5604C11.9401 73.299 13.8914 72.9688 15.911 72.7348C18.3673 72.4596 20.8508 72.2257 23.348 72.0193L27.7284 72.666H27.4418C25.3403 72.7624 23.2252 72.8036 21.1783 73.0238C20.9276 73.052 20.6833 73.1217 20.4551 73.2302C20.2777 73.3403 20.2777 73.4779 20.6325 73.6155C21.3597 73.6565 22.0886 73.6565 22.8158 73.6155C23.7574 73.6155 24.7126 73.5054 25.6678 73.4779C27.0324 73.4779 28.4652 73.3953 29.8571 73.354C29.9501 73.5781 30.0952 73.7763 30.2801 73.932H29.4614L27.5783 74.042C25.9271 74.1246 24.3305 74.331 22.6794 74.4136C21.8208 74.4263 20.9657 74.5277 20.1276 74.7163C20.0048 74.7163 19.8956 74.8401 19.8956 74.9089C19.8956 74.9777 20.1412 75.0878 20.4278 75.074L26.5002 74.7438C27.8648 74.7438 29.2976 74.5649 30.6895 74.5374C33.2004 74.5374 35.6976 74.5374 38.1947 74.5374C38.3757 74.6479 38.5837 74.7051 38.7952 74.7025H38.9589L39.6958 74.5924H40.8557C44.0898 74.7438 47.3375 74.8401 50.476 75.2391C52.0807 75.4091 53.675 75.6663 55.2521 76.0097L56.6167 76.2849C56.9749 76.3763 57.3501 76.3763 57.7084 76.2849C57.9267 76.1886 57.9403 76.0235 58.0359 75.8996C56.6394 75.3716 55.1807 75.0293 53.6965 74.8814L52.4138 74.7438C49.8893 74.3447 47.201 74.2347 44.5537 74.0833H43.4757L47.7605 73.4366C48.552 73.4366 49.3298 73.5329 50.1076 73.6155C50.9044 73.7256 51.7124 73.7256 52.5093 73.6155C52.6321 73.4228 52.4274 73.299 52.0044 73.2577C51.5814 73.2164 50.9536 73.1476 50.4215 73.0926L52.9732 72.7211C54.1741 72.8312 55.3613 72.9688 56.5485 73.1064C58.6909 73.3403 60.8333 73.588 62.8392 74.0008C63.1373 74.0535 63.4379 74.0902 63.7398 74.1108C63.8814 74.1377 64.0277 74.1205 64.1593 74.0615C64.2909 74.0025 64.4016 73.9045 64.4767 73.7806C64.3865 73.7342 64.2899 73.7017 64.1902 73.6843C62.1979 73.2302 60.0964 72.8587 57.9267 72.5697L58.1177 72.4734H58.3634L58.4862 72.1707L58.6226 72.0331C58.6626 72.0001 58.6991 71.9633 58.7318 71.923L58.8137 71.8404C58.9298 71.8069 59.0402 71.7559 59.1412 71.6891L61.7612 71.9505C62.1979 71.9505 62.6482 71.9505 63.1258 71.9505C63.3441 71.9505 63.4669 71.7717 63.3168 71.7029C62.8605 71.5094 62.3771 71.3888 61.884 71.3451L59.6324 71.0424C59.6929 70.8651 59.7251 70.6794 59.728 70.492V70.3957L63.5079 71.0149C64.0627 71.1181 64.6315 71.1181 65.1863 71.0149C65.1727 70.6433 64.6405 70.4369 63.9172 70.2993ZM55.1429 32.5422L41.7427 32.666C41.6976 32.5815 41.6742 32.4869 41.6745 32.3908V29.0472C41.6745 28.827 41.8109 28.6344 41.961 28.6482L43.039 28.7307C42.8753 28.7307 42.7525 28.5243 42.7525 28.2904V24.933C42.7525 24.7128 42.8753 24.5339 43.039 24.5477H43.4075V18.7548C43.4075 18.5209 43.5303 18.3558 43.694 18.3695L53.2462 19.5116C53.3963 19.5116 53.5054 19.718 53.5054 19.9381V25.0568C53.5054 25.2632 53.3963 25.4146 53.2734 25.4283H53.9421C54.0786 25.4283 54.1877 25.6347 54.1877 25.8411V28.9922C54.1877 29.1986 54.0786 29.3774 53.9421 29.3637L54.911 29.4325C55.0611 29.4325 55.1702 29.6251 55.1702 29.8453L55.1429 32.5422ZM33.5279 68.7995L31.5356 68.5106V72.7899C31.5356 73.3678 31.2217 73.7944 30.8396 73.7393C30.4575 73.6843 30.13 73.1752 30.13 72.5972V68.3454L11.4625 65.5935V69.4875C11.4625 70.0104 11.2032 70.3957 10.8893 70.3544H10.9166C10.5891 70.3544 10.3435 69.8453 10.3435 69.3224V65.5109L9.34735 65.3595C9.14266 65.3595 8.99256 64.933 8.99256 64.4789C8.99256 64.0248 9.14266 63.6671 9.34735 63.6946L33.5551 66.9557C33.8008 66.9557 34.0055 67.4373 34.0055 67.9464C34.0055 68.4555 33.7735 68.8683 33.5279 68.7995ZM58.7591 59.6767V66.5567C58.7591 66.1851 58.6772 65.8274 58.6499 65.5384C58.4452 63.1167 58.2678 61.0802 58.145 59.3327H58.5135C58.6772 59.3327 58.7591 59.4978 58.7591 59.7042V59.6767ZM51.1038 55.191C51.2875 54.8696 51.434 54.5279 51.5404 54.1727C51.5929 53.913 51.5871 53.6447 51.5234 53.3876C51.4596 53.1304 51.3395 52.8909 51.172 52.6867L50.4897 51.7785C50.2 51.3712 50.0126 50.899 49.9438 50.4025C49.9438 50.4025 49.9438 50.2787 49.9438 50.1961C49.836 50.2991 49.7538 50.4263 49.704 50.5674C49.6542 50.7085 49.6382 50.8595 49.6573 51.008C49.7136 51.4063 49.791 51.8013 49.8893 52.1913C49.9906 52.5536 50.0726 52.921 50.1349 53.2921C50.1492 53.44 50.1268 53.5891 50.0696 53.7261C50.0124 53.863 49.9223 53.9834 49.8074 54.0764C49.8074 53.072 49.8074 52.7968 49.398 52.6179L48.9068 53.8012C48.4974 53.3609 48.511 52.5628 48.9068 51.4345C48.5383 51.4345 47.9652 52.1776 47.7332 52.8105C47.5409 53.2252 47.4888 53.692 47.5849 54.1394C47.6811 54.5868 47.9201 54.9901 48.2654 55.2873C47.8017 55.2301 47.3615 55.0496 46.9898 54.7643C46.6181 54.479 46.3284 54.0991 46.1503 53.6636C46.0127 53.1891 45.9982 52.6869 46.1081 52.2051C46.218 51.7232 46.4486 51.2779 46.778 50.9117L46.9281 51.8336H47.0373C47.0436 51.7879 47.0436 51.7416 47.0373 51.696C47.0415 51.0626 47.2211 50.4431 47.5558 49.9072C47.7332 49.5907 47.897 49.2742 48.088 48.9715C48.2934 48.7007 48.4386 48.3885 48.5139 48.0562C48.5893 47.7238 48.5929 47.379 48.5247 47.0451L49.0296 47.3066C49.0654 46.9717 49.1825 46.6509 49.3705 46.3725C49.5586 46.0941 49.8117 45.8667 50.1076 45.7104C49.9199 46.6463 50.0598 47.6188 50.5033 48.4624L50.6125 48.2147C50.8421 48.737 51.1766 49.2055 51.595 49.5907C51.8275 49.7967 51.9962 50.0659 52.0809 50.366C52.1656 50.6662 52.1627 50.9846 52.0726 51.2832C52.0726 51.3657 52.0726 51.4621 52.0726 51.6134C52.4274 51.407 52.4274 51.0768 52.4956 50.7741C52.7708 51.1373 52.9552 51.5619 53.0334 52.0122C53.1115 52.4624 53.081 52.925 52.9445 53.3608C52.808 53.7967 52.5695 54.193 52.2491 54.5163C51.9287 54.8397 51.5359 55.0805 51.1038 55.2185V55.191ZM55.566 51.4483C55.3281 50.3895 54.9422 49.3703 54.4197 48.4211C54.7791 48.6197 55.1532 48.7899 55.5387 48.9302V50.9254C55.5796 51.1593 55.566 51.3245 55.566 51.4758V51.4483ZM58.8546 71.0837L58.6772 71.2901L58.4452 71.5515C58.4053 71.5844 58.3687 71.6213 58.3361 71.6616L58.1314 71.8404V71.9643H58.0359C57.9271 72.0764 57.7816 72.1449 57.6265 72.1569C57.5774 72.1711 57.5254 72.1711 57.4764 72.1569C57.2717 72.0744 57.258 72.0468 57.1625 70.7809C57.1625 70.2993 57.0806 69.6526 57.0124 68.6482C57.0124 67.9189 56.9169 67.107 56.8623 66.2264C56.5621 61.3692 56.1937 54.6543 56.0436 52.0262C56.0436 51.7235 56.0436 51.1043 56.0436 50.6502V48.7514C55.1429 48.4349 53.0824 47.5818 53.0961 46.0957C53.0961 44.0868 54.5698 43.6052 54.6517 42.6557C54.6796 42.4399 54.6465 42.2205 54.5562 42.0228C54.4974 42.0924 54.4144 42.1367 54.3242 42.1466C54.1741 42.1466 54.0513 42.064 54.0513 41.954C54.0545 41.9105 54.0706 41.8689 54.0973 41.8347C54.124 41.8004 54.1602 41.7748 54.2014 41.7613C54.1195 41.7613 55.1156 41.5549 54.911 42.5044C54.7063 43.4538 53.5464 44.4583 53.5464 46.0819C53.5464 47.224 55.3886 48.1322 56.2755 48.201H56.4393C57.1216 48.2973 59.2776 46.9763 59.1685 45.7655C58.9501 44.1693 57.6947 43.3024 57.3809 42.3805C57.067 41.4586 58.1041 41.5274 58.0632 41.5412C58.2133 41.5412 58.3361 41.61 58.3361 41.7201C58.3361 41.8301 58.2405 41.9264 58.0904 41.9402C57.9403 41.954 57.8175 41.8576 57.8175 41.7476C57.8135 41.7059 57.8254 41.6642 57.8507 41.631C57.8761 41.5977 57.913 41.5755 57.954 41.5687C57.7629 41.6375 57.49 41.8439 57.6128 42.4906C57.7902 43.4263 59.2776 43.7428 59.5233 45.7517C59.687 47.1277 57.9267 48.201 57.0124 48.6413L57.2444 50.5677C57.2848 50.5872 57.3183 50.6188 57.3402 50.6582C57.3622 50.6976 57.3716 50.7428 57.3672 50.7878C57.4491 53.5398 57.6265 57.3513 58.3634 65.7035C58.4452 66.5979 58.6363 68.0427 58.8 69.2123C58.9365 70.9736 58.9365 70.9736 58.8546 71.1112V71.0837ZM57.722 48.5862V52.494C57.722 51.8336 57.722 51.2419 57.722 50.6915C57.721 50.5428 57.6733 50.3982 57.5855 50.2787L57.3126 48.8064L57.722 48.5862Z" fill="#F7EBDE"/>
<path d="M56.9852 50.3749L56.7941 48.5999L56.6304 48.6411L56.7259 50.3886L56.9852 50.3749Z" fill="#F7EBDE"/>
</g>
<defs>
<clipPath id="clip0_1536_1103">
<rect width="202" height="80" fill="white"/>
</clipPath>
</defs>
</svg>
