<svg width="149" height="59" viewBox="0 0 149 59" fill="none" xmlns="http://www.w3.org/2000/svg">
<g clip-path="url(#clip0_1936_1177)">
<path d="M54.62 27.6699V38.6699H52V27.6699H54.62ZM60.95 27.6699L57 34.2999H54.16L53.84 31.9099H55.65L57.76 27.6699H60.95ZM58.21 38.6699L55.64 33.8699L57.56 32.0999L61.33 38.6699H58.21Z" fill="#352F26"/>
<path d="M64.4798 34.5901L68.4198 27.6701H71.0698V38.6701H68.4198V31.7201L64.4798 38.6401H61.8398V27.6401H64.4798V34.5901Z" fill="#352F26"/>
<path d="M77.0597 34.9099H74.3297V32.9099H77.0597C77.371 32.9247 77.6809 32.8592 77.9597 32.7199C78.1811 32.6058 78.3599 32.4235 78.4697 32.1999C78.581 31.9623 78.6357 31.7022 78.6297 31.4399C78.6361 31.155 78.5815 30.872 78.4697 30.6099C78.364 30.3551 78.1869 30.1363 77.9597 29.9799C77.6886 29.817 77.3757 29.737 77.0597 29.7499H75.3297V38.6799H72.6797V27.6799H77.0597C77.8435 27.6597 78.6211 27.8241 79.3297 28.1599C79.9344 28.4524 80.444 28.91 80.7997 29.4799C81.1449 30.06 81.3215 30.7249 81.3097 31.3999C81.3243 32.0532 81.147 32.6964 80.7997 33.2499C80.4386 33.7931 79.9281 34.2203 79.3297 34.4799C78.6139 34.7887 77.8388 34.9356 77.0597 34.9099Z" fill="#352F26"/>
<path d="M91.9397 27.6701V38.6701H89.2897V29.7101H85.3497V38.6401H82.7197V27.6401L91.9397 27.6701Z" fill="#352F26"/>
<path d="M96.0902 34.5901L100 27.6701H102.64V38.6701H100V31.7201L96.0602 38.6401H93.4502V27.6401H96.0902V34.5901Z" fill="#352F26"/>
<path d="M104.25 27.6699H106.89V30.9999C106.881 31.3462 106.956 31.6896 107.11 31.9999C107.255 32.244 107.482 32.4284 107.75 32.5199C108.096 32.628 108.458 32.6787 108.82 32.6699H109.3L109.97 32.6099C110.192 32.5918 110.412 32.5617 110.63 32.5199C110.787 32.501 110.942 32.4641 111.09 32.4099V34.4099C110.935 34.4649 110.774 34.5018 110.61 34.5199L109.92 34.6199H109.26H108.82C108.002 34.6391 107.188 34.5034 106.42 34.2199C105.77 33.9895 105.21 33.5588 104.82 32.9899C104.418 32.3621 104.218 31.6252 104.25 30.8799V27.6699ZM110.57 27.6699H113.22V38.6699H110.57V27.6699Z" fill="#352F26"/>
<path d="M117.5 27.6699V38.6699H114.86V27.6699H117.5ZM122.25 31.9999V33.9999H116.62V31.9999H122.25ZM124 27.6699V38.6699H121.36V27.6699H124Z" fill="#352F26"/>
<path d="M127.34 31.4401H129.7C130.497 31.4218 131.288 31.5753 132.02 31.8901C132.638 32.149 133.169 32.5793 133.55 33.1301C133.918 33.6834 134.106 34.3362 134.09 35.0001C134.093 35.5066 133.987 36.0079 133.78 36.4701C133.572 36.9147 133.268 37.3075 132.89 37.6201C132.487 37.9628 132.017 38.2182 131.51 38.3701C130.925 38.5572 130.314 38.6484 129.7 38.6401H125.7V27.6401H128.35V36.6001H129.71C130.058 36.6234 130.405 36.5471 130.71 36.3801C130.96 36.2466 131.168 36.0457 131.31 35.8001C131.444 35.5477 131.513 35.2658 131.51 34.9801C131.514 34.7101 131.445 34.4441 131.31 34.2101C131.166 33.9763 130.958 33.7888 130.71 33.6701C130.399 33.5207 130.055 33.4519 129.71 33.4701H127.35L127.34 31.4401ZM137.52 27.6701V38.6701H134.88V27.6701H137.52Z" fill="#352F26"/>
<path d="M141.79 27.6699V38.6699H139.15V27.6699H141.79ZM146.72 27.6699V29.6699H140.85V27.6699H146.72ZM146 31.9999V33.9999H140.9V31.9999H146ZM146.75 36.5799V38.5799H140.9V36.5799H146.75Z" fill="#352F26"/>
<path d="M61.21 43.0998V54.0998H58.56V45.1398H54.62V54.0698H52V43.0698L61.21 43.0998Z" fill="#352F26"/>
<path d="M65.5104 43.1001V54.1001H62.8604V43.1001H65.5104ZM70.4404 43.1001V45.1001H64.5704V43.1001H70.4404ZM69.6604 47.4501V49.4501H64.5704V47.4501H69.6604ZM70.4104 52.0001V54.0001H64.5704V52.0001H70.4104Z" fill="#352F26"/>
<path d="M71.67 43.1001H74.32V46.4301C74.3079 46.7755 74.3799 47.1187 74.53 47.4301C74.6746 47.6742 74.9015 47.8586 75.17 47.9501C75.5161 48.0582 75.8776 48.1089 76.24 48.1001H76.72L77.39 48.0401C77.6116 48.0226 77.8319 47.9926 78.05 47.9501C78.2071 47.9312 78.3614 47.8943 78.51 47.8401V49.8401C78.3457 49.91 78.1749 49.9636 78 50.0001L77.31 50.0901H76.65C76.5035 50.0977 76.3566 50.0977 76.21 50.0901C75.392 50.1083 74.5779 49.9726 73.81 49.6901C73.16 49.4597 72.5998 49.029 72.21 48.4601C71.8072 47.8323 71.6081 47.0954 71.64 46.3501L71.67 43.1001ZM77.99 43.1001H80.64V54.1001H78L77.99 43.1001Z" fill="#352F26"/>
<path d="M84.7699 49.9998L88.7099 43.0798H91.3599V54.0798H88.7099V47.1498L84.7699 54.0698H82.1299V43.0698H84.7699V49.9998Z" fill="#352F26"/>
<path d="M36.89 3.99987C36.9936 4.00184 37.0955 3.97278 37.1826 3.91641C37.2696 3.86004 37.3378 3.77894 37.3784 3.68352C37.419 3.58811 37.4301 3.48274 37.4104 3.38094C37.3906 3.27915 37.3409 3.18559 37.2676 3.11227C37.1943 3.03895 37.1007 2.98922 36.9989 2.96948C36.8971 2.94973 36.7917 2.96087 36.6963 3.00146C36.6009 3.04205 36.5198 3.11024 36.4634 3.19727C36.4071 3.2843 36.378 3.3862 36.38 3.48987C36.38 3.62513 36.4337 3.75485 36.5294 3.85049C36.625 3.94614 36.7547 3.99987 36.89 3.99987Z" fill="#352F26"/>
<path d="M29.8799 1.8999C30.0788 1.8999 30.2696 1.82088 30.4102 1.68023C30.5509 1.53958 30.6299 1.34881 30.6299 1.1499C30.6299 0.95099 30.5509 0.760225 30.4102 0.619572C30.2696 0.47892 30.0788 0.399902 29.8799 0.399902C29.681 0.399902 29.4902 0.47892 29.3496 0.619572C29.2089 0.760225 29.1299 0.95099 29.1299 1.1499C29.1299 1.34881 29.2089 1.53958 29.3496 1.68023C29.4902 1.82088 29.681 1.8999 29.8799 1.8999Z" fill="#352F26"/>
<path d="M27.4697 3.00016C27.5095 2.99303 27.5474 2.97794 27.5812 2.95579C27.615 2.93365 27.644 2.9049 27.6664 2.87128C27.6888 2.83766 27.7042 2.79986 27.7117 2.76014C27.7191 2.72043 27.7185 2.67962 27.7097 2.64016C27.6951 2.55928 27.649 2.48751 27.5815 2.44063C27.514 2.39375 27.4306 2.3756 27.3497 2.39016C27.2707 2.40704 27.2014 2.45412 27.1566 2.52137C27.1117 2.58861 27.0949 2.67071 27.1097 2.75016C27.1244 2.83104 27.1705 2.90281 27.238 2.94969C27.3055 2.99657 27.3889 3.01473 27.4697 3.00016Z" fill="#352F26"/>
<path d="M24.1301 12.6602C23.9949 12.6602 23.8651 12.7139 23.7695 12.8095C23.6738 12.9052 23.6201 13.0349 23.6201 13.1702C23.6512 13.2788 23.7167 13.3744 23.807 13.4425C23.8972 13.5105 24.0071 13.5473 24.1201 13.5473C24.2331 13.5473 24.3431 13.5105 24.4333 13.4425C24.5235 13.3744 24.5891 13.2788 24.6201 13.1702C24.6202 13.0383 24.5692 12.9115 24.4779 12.8164C24.3865 12.7213 24.2619 12.6653 24.1301 12.6602Z" fill="#352F26"/>
<path d="M22.4497 9.29005C22.0547 8.72727 21.8216 8.06696 21.7757 7.38094C21.7298 6.69492 21.8729 6.00945 22.1894 5.39909C22.506 4.78873 22.9838 4.27684 23.5709 3.91909C24.1581 3.56135 24.8321 3.37145 25.5197 3.37005C25.8369 3.36858 26.153 3.40892 26.4597 3.49005C26.0015 2.83692 25.347 2.34692 24.5913 2.09128C23.8355 1.83565 23.018 1.82769 22.2574 2.06857C21.4968 2.30945 20.8329 2.78662 20.3621 3.43071C19.8914 4.07481 19.6383 4.85226 19.6397 5.65005C19.6409 6.48177 19.9172 7.28972 20.4254 7.94809C20.9337 8.60645 21.6454 9.07826 22.4497 9.29005Z" fill="#352F26"/>
<path d="M22 7.28012C22.0007 7.98184 22.1977 8.66937 22.5689 9.26493C22.94 9.86049 23.4704 10.3403 24.1 10.6501C23.7783 10.3097 23.5338 9.90405 23.3829 9.46066C23.2321 9.01727 23.1786 8.54659 23.2261 8.08066C23.2735 7.61474 23.4208 7.16451 23.6579 6.76062C23.895 6.35673 24.2163 6.00866 24.6 5.74012C24.288 6.01747 24.0359 6.35552 23.8591 6.73362C23.6822 7.11171 23.5843 7.5219 23.5713 7.93912C23.5584 8.35634 23.6306 8.77182 23.7837 9.16016C23.9367 9.5485 24.1674 9.90155 24.4615 10.1977C24.7557 10.4939 25.1071 10.727 25.4944 10.8827C25.8817 11.0385 26.2966 11.1136 26.7139 11.1035C27.1312 11.0935 27.5421 10.9984 27.9214 10.8242C28.3007 10.6499 28.6405 10.4001 28.92 10.0901C28.6221 9.63789 28.4401 9.11931 28.39 8.58012C28.5227 8.67508 28.6632 8.75871 28.81 8.83012C28.9105 9.68217 29.3205 10.4676 29.962 11.0373C30.6036 11.607 31.432 11.9211 32.29 11.9201C32.5183 11.9172 32.7459 11.8937 32.97 11.8501C33.1639 12.0878 33.4433 12.2398 33.7482 12.2735C34.053 12.3071 34.3589 12.2198 34.6 12.0301C34.763 11.8735 34.8742 11.6708 34.9189 11.4492C34.9636 11.2276 34.9395 10.9977 34.85 10.7901C35.2642 10.3343 35.5512 9.77745 35.6821 9.17558C35.813 8.57371 35.7833 7.94799 35.5958 7.36126C35.4083 6.77454 35.0698 6.24748 34.6141 5.83303C34.1585 5.41857 33.6018 5.13132 33 5.00012C32.8076 4.49685 32.4861 4.05307 32.0679 3.71338C31.6497 3.37369 31.1495 3.15005 30.6174 3.06493C30.0854 2.9798 29.5403 3.03619 29.037 3.22844C28.5337 3.42068 28.0898 3.742 27.75 4.16012C27.1396 3.75453 26.4228 3.53879 25.69 3.54012C24.7076 3.55583 23.7706 3.95648 23.0806 4.65589C22.3905 5.3553 22.0025 6.2976 22 7.28012Z" fill="#352F26"/>
<path d="M4.46012 53.8801C4.77012 53.8801 4.81012 53.6801 4.52012 53.5601C3.53666 53.5838 2.55676 53.6874 1.59012 53.8701C1.34538 53.9226 1.10475 53.9928 0.870117 54.0801C0.940117 54.2401 1.10012 54.3101 1.44012 54.2901C2.45462 54.2191 3.46342 54.0822 4.46012 53.8801Z" fill="#352F26"/>
<path d="M2.99973 51.5099C3.14973 51.5099 3.22973 51.3999 3.12973 51.3199C3.05754 51.2586 2.97207 51.2149 2.88007 51.1924C2.78808 51.1698 2.6921 51.169 2.59973 51.1899C2.02973 51.2499 1.44973 51.3199 0.899727 51.4099C0.739172 51.4234 0.587764 51.4903 0.469727 51.5999C0.469727 51.6899 0.579727 51.7899 0.669727 51.9199C1.45681 51.8511 2.23641 51.7139 2.99973 51.5099Z" fill="#352F26"/>
<path d="M41.7197 36.8601C41.7197 36.6601 41.4297 36.6801 41.4197 36.5201C41.3994 36.2272 41.3994 35.9331 41.4197 35.6401H41.1797V36.1501C41.1797 36.5301 41.2397 37.1501 41.2797 37.8301C41.4197 40.4301 41.6697 44.8301 41.8697 48.0701C41.8697 48.7101 41.9497 49.3101 41.9897 49.8401C42.0297 50.3701 42.0597 50.9801 42.0897 51.3801C42.0979 51.6554 42.128 51.9296 42.1797 52.2001C42.1797 52.2001 42.3097 52.2001 42.4197 52.0701L42.5697 51.9301L42.6397 51.8601L42.8097 51.6801L42.9097 51.5501C42.9097 51.5501 42.5397 48.9101 42.4297 47.7101C41.9397 42.0701 41.7797 39.1501 41.7197 36.8601Z" fill="#352F26"/>
<path d="M39.8596 50.2401C39.8647 50.1435 39.8647 50.0467 39.8596 49.9501C39.8596 47.1101 38.3396 44.9501 36.4196 45.1401C34.4996 45.3301 32.8096 47.8901 32.8096 50.8701C32.8096 50.9801 32.8096 51.0801 32.8096 51.1801L39.8596 50.2401Z" fill="#352F26"/>
<path d="M36.3203 26.57L34.2303 26.5C34.1203 26.5 34.0303 26.62 34.0303 26.79V28.05C34.0303 28.21 34.1203 28.35 34.2303 28.35H36.3203C36.4303 28.35 36.5203 28.22 36.5203 28.06V27.7H35.7603C35.6403 27.7 35.5403 27.55 35.5403 27.37C35.5403 27.19 35.6403 27.04 35.7603 27.04H37.0303C37.1503 27.04 37.2503 27.2 37.2503 27.38C37.2569 27.4428 37.2442 27.5062 37.2138 27.5616C37.1834 27.617 37.1368 27.6618 37.0803 27.69C37.1972 27.668 37.3011 27.6016 37.3701 27.5046C37.4391 27.4076 37.4678 27.2877 37.4503 27.17C37.4503 27.05 37.2403 26.94 37.0403 26.94H36.5203V26.87C36.5203 26.71 36.4303 26.57 36.3203 26.57Z" fill="#352F26"/>
<path d="M40.0003 25.8198C39.9003 25.8198 39.8203 25.9398 39.8203 26.0998V29.0998C39.8203 29.2598 39.9003 29.3898 40.0003 29.3898H41.0003C41.1003 29.3898 41.1903 29.2598 41.1903 29.1098V26.1098C41.1903 25.9598 41.1003 25.8298 41.0003 25.8198H40.2603H40.3703C40.3703 25.8198 40.3703 25.9498 40.3703 26.0998V28.9998C40.3703 29.1498 40.3703 29.2698 40.3703 29.2698H40.0603C40.0603 29.2698 40.0003 29.1098 40.0003 28.9998V26.4298C39.9834 26.2268 39.9834 26.0228 40.0003 25.8198Z" fill="#352F26"/>
<path d="M31.2501 29.2602C31.3601 29.2602 31.4601 29.1202 31.4601 28.9602V25.7802C31.4601 25.6102 31.3601 25.4702 31.2501 25.4702H30.0801C29.9601 25.4702 29.8701 25.6002 29.8701 25.7702V28.9802C29.8701 29.1502 29.9601 29.2902 30.0801 29.2902L31.2501 29.2602ZM29.9401 28.7002V25.8302C29.9401 25.6802 29.9401 25.5602 30.0101 25.5702H30.3401C30.3401 25.5702 30.4001 25.7002 30.4001 26.1502V29.0002C30.4001 28.8502 30.4001 29.0002 30.3401 29.0002H30.0001C30.0001 29.0002 29.9401 28.8502 29.9401 28.7002Z" fill="#352F26"/>
<path d="M30.7996 54.8999C28.7196 54.7999 26.6396 54.7399 24.5296 54.7899C21.8096 54.8599 19.1296 54.9999 16.3696 55.1599C16.2296 55.5199 16.4796 55.6499 17.1496 55.5899C17.9838 55.5113 18.8217 55.4779 19.6596 55.4899C19.796 55.5002 19.9331 55.5002 20.0696 55.4899C21.8096 55.3299 23.5996 55.2999 25.3696 55.2799C27.8496 55.2799 30.3696 55.2799 32.8096 55.4099C33.3782 55.4646 33.9509 55.4646 34.5196 55.4099L34.2796 55.1399C33.1096 54.9999 31.9996 54.9999 30.7996 54.8999Z" fill="#352F26"/>
<path d="M12.62 53.3901C11.84 53.3901 11.04 53.4901 10.29 53.5801C8.54998 53.7901 6.84998 54.0501 5.10998 54.2501C3.70998 54.4101 2.40998 54.6701 1.03998 54.8501C0.688827 54.9218 0.341683 55.0119 -2.01166e-05 55.1201C-0.0800201 55.1201 -0.18002 55.1201 -0.20002 55.1901C-0.22002 55.2601 -0.30002 55.3401 -0.28002 55.4001C-0.26002 55.4601 -0.0400201 55.5101 0.14998 55.5101C0.555807 55.51 0.960795 55.4732 1.35998 55.4001C2.52998 55.1601 3.68998 54.9201 4.91998 54.7501C7.07998 54.4501 9.28998 54.2001 11.48 53.9301C12.05 53.8601 12.62 53.7701 13.18 53.6801C13.4 53.6801 13.53 53.5501 13.41 53.4201C13.1475 53.3937 12.8837 53.3837 12.62 53.3901Z" fill="#352F26"/>
<path d="M11.8605 54.5299C11.109 54.4615 10.3517 54.4985 9.61048 54.6399C8.66048 54.7899 7.70048 54.9299 6.77048 55.0899C6.43237 55.1612 6.09851 55.2513 5.77048 55.3599C5.75455 55.3628 5.73968 55.3699 5.72743 55.3804C5.71519 55.391 5.70603 55.4047 5.70091 55.4201C5.69579 55.4354 5.69491 55.4519 5.69835 55.4677C5.7018 55.4835 5.70944 55.4981 5.72048 55.5099C5.8281 55.5544 5.94413 55.5749 6.06048 55.5699C7.97048 55.4699 9.74048 55.1899 11.5405 54.9499H11.6705C12.0005 54.8299 12.1205 54.7099 11.8605 54.5299Z" fill="#352F26"/>
<path d="M46.8102 54.5399C45.0143 54.0579 43.1755 53.7531 41.3202 53.6299C41.1402 53.6299 40.9102 53.6299 40.9102 53.7299C40.9102 53.8299 40.9902 53.8799 41.1102 53.9099C41.4902 54.0199 41.9002 54.1099 42.3202 54.1899L46.3202 54.8799C46.5302 54.8799 46.7602 54.8799 46.9202 54.9499C47.0251 54.9456 47.1292 54.9288 47.2302 54.8999C47.2902 54.8999 47.3302 54.7899 47.2802 54.7499C47.1387 54.6499 46.979 54.5786 46.8102 54.5399Z" fill="#352F26"/>
<path d="M23.3099 23.6001H22.7099L20.3099 23.7101C20.1462 23.7278 19.9959 23.8089 19.8913 23.936C19.7866 24.063 19.7359 24.2261 19.7499 24.3901V31.4601C19.57 31.0969 19.2961 30.7885 18.9567 30.5669C18.6173 30.3453 18.2248 30.2187 17.8199 30.2001C17.3771 29.62 16.7908 29.1652 16.1188 28.8807C15.4468 28.5962 14.7122 28.4917 13.9875 28.5774C13.2628 28.6632 12.5729 28.9364 11.9859 29.37C11.3989 29.8036 10.935 30.3826 10.6399 31.0501C9.25988 31.0501 8.09988 31.5001 7.79988 32.1101C7.79807 32.1367 7.79807 32.1635 7.79988 32.1901H7.86988C8.06988 32.6401 8.98988 34.7001 9.69988 34.6801C10.1699 34.6801 10.3299 33.9201 11.2899 33.6001C12.2499 33.2801 13.2899 32.6901 14.8499 32.2401H15.7999V32.3001C14.7041 32.5493 13.6381 32.9147 12.6199 33.3901C12.1799 33.5801 11.7699 33.7601 11.3899 33.8801C11.0361 34.0058 10.7221 34.2232 10.4799 34.5101C10.3897 34.6353 10.2749 34.7407 10.1425 34.8198C10.0101 34.8989 9.86283 34.95 9.70988 34.9701C8.83988 34.9701 7.95988 33.1101 7.62988 32.3401V41.5001L28.5499 44.3501V23.7701L23.3099 23.6001Z" fill="#352F26"/>
<path d="M46.8399 51.0899L43.7499 50.5599V43.3899C43.7786 43.1571 43.7152 42.9222 43.5732 42.7354C43.4313 42.5486 43.222 42.4247 42.9899 42.3899V34.8299C43.2621 34.6453 43.4823 34.3938 43.6294 34.0997C43.7765 33.8055 43.8455 33.4785 43.8299 33.1499C43.765 32.5053 43.4704 31.9054 42.9999 31.4599V23.7399L41.1199 23.6499V21.7599C41.1294 21.5381 41.0648 21.3194 40.9362 21.1383C40.8077 20.9572 40.6225 20.8241 40.4099 20.7599V18.8399C40.4142 18.6603 40.37 18.4829 40.2821 18.3263C40.1941 18.1697 40.0655 18.0397 39.9099 17.9499V14.4899C39.9146 14.256 39.8372 14.0278 39.691 13.8451C39.5448 13.6624 39.3392 13.5367 39.1099 13.4899L32.1099 12.6699H31.9999C31.8753 12.6695 31.7521 12.6971 31.6396 12.7508C31.527 12.8044 31.428 12.8828 31.3499 12.9799L26.4199 13.5399C26.2558 13.5691 26.1081 13.6575 26.0048 13.7884C25.9016 13.9193 25.85 14.0835 25.8599 14.2499V17.8999L24.9399 17.9799C24.7756 18.0047 24.6267 18.0905 24.5229 18.2203C24.419 18.35 24.368 18.5142 24.3799 18.6799V20.8899L23.2799 20.9599C23.1146 20.9824 22.9642 21.0676 22.86 21.1979C22.7557 21.3283 22.7056 21.4937 22.7199 21.6599V23.3799L30.5899 23.8499H29.6599L30.7299 23.8999L40.3499 24.2899L40.2899 24.3399L42.2899 24.4399V29.8599C42.1749 29.8672 42.0625 29.8975 41.9595 29.949C41.8564 30.0006 41.7647 30.0723 41.6899 30.1599C41.6218 30.2659 41.5807 30.3869 41.5702 30.5125C41.5598 30.638 41.5803 30.7642 41.6299 30.8799C41.7634 31.191 41.942 31.4808 42.1599 31.7399L42.2899 31.9199V34.1999C42.0018 34.4387 41.6577 34.6005 41.2899 34.6699H41.1099C40.5199 34.6099 39.3799 34.0199 39.3999 33.4499C39.4517 32.863 39.6588 32.3004 39.9999 31.8199C40.1916 31.5383 40.3368 31.2276 40.4299 30.8999C40.4681 30.7862 40.478 30.6648 40.4589 30.5463C40.4397 30.4279 40.392 30.3159 40.3199 30.2199C40.2486 30.1369 40.1593 30.0713 40.0588 30.0279C39.9583 29.9846 39.8493 29.9648 39.7399 29.9699C39.6323 29.9659 39.5254 29.9901 39.4299 30.0399C39.3586 30.0809 39.3002 30.141 39.2613 30.2135C39.2224 30.2859 39.2046 30.3679 39.2099 30.4499C39.2174 30.5623 39.2668 30.6678 39.3482 30.7455C39.4297 30.8233 39.5373 30.8677 39.6499 30.8699C39.5947 31.0919 39.4767 31.2933 39.3099 31.4499C38.8126 31.9787 38.5308 32.6742 38.5199 33.3999C38.5146 33.4565 38.5146 33.5134 38.5199 33.5699C37.8793 33.029 37.0684 32.7315 36.2299 32.7299C33.4799 32.7299 31.1799 36.1499 31.1799 40.3099C31.1799 40.4599 31.1799 40.5999 31.1799 40.7499L40.8099 40.1399C40.8099 40.7999 40.8899 41.5399 40.9399 42.3199L28.4299 44.3199L40.9999 43.1899C41.0999 44.8399 41.1999 46.6099 41.2999 48.1199C41.2999 48.7699 41.3799 49.3599 41.4099 49.8899C41.4599 50.6299 41.4899 51.0899 41.5199 51.4399C41.5199 51.5399 41.5199 51.6299 41.5199 51.7099L28.4599 53.6199C28.3399 53.6199 28.2399 53.5099 28.2399 53.3399V44.6799C28.2399 44.5099 28.3399 44.3599 28.4599 44.3499L8.13993 42.3499H7.53993H7.17993C7.11284 42.3562 7.04765 42.3757 6.98813 42.4073C6.92861 42.4389 6.87594 42.4819 6.83316 42.534C6.79039 42.5861 6.75836 42.6461 6.73893 42.7106C6.71949 42.7752 6.71304 42.8429 6.71993 42.9099V45.9099L6.28993 45.9799L10.2899 45.3499C10.5259 45.3249 10.7639 45.3249 10.9999 45.3499L27.8999 47.7599C28.1199 47.7599 28.1299 47.8399 27.8999 47.8699L24.7799 48.5299C24.5044 48.565 24.2255 48.565 23.9499 48.5299L6.20993 45.9999H6.54993C6.44496 46.099 6.36421 46.2208 6.31392 46.3561C6.26363 46.4913 6.24516 46.6364 6.25993 46.7799C6.25993 47.1899 6.40993 47.6199 6.72993 47.7099V50.2999C6.71377 50.3791 6.71377 50.4607 6.72993 50.5399L5.47993 50.6799H5.34993C5.13993 50.6799 4.88993 50.7599 4.88993 50.8699C4.88993 50.9799 4.96993 51.0299 5.00993 51.1199C5.22993 51.1199 5.36993 51.1199 5.49993 51.1199L7.37993 50.9999C7.42668 51.1159 7.50133 51.2186 7.59728 51.2989C7.69322 51.3791 7.80748 51.4344 7.92993 51.4599H7.99993C8.11309 51.4555 8.22296 51.4207 8.31799 51.3591C8.41302 51.2975 8.48969 51.2114 8.53993 51.1099L10.5999 51.4099C9.36993 51.5299 8.14993 51.6699 6.92993 51.8199C5.27993 52.0099 3.68993 52.2899 2.07993 52.5399C1.80007 52.5925 1.52304 52.6593 1.24993 52.7399C1.15993 52.7399 1.07993 52.8499 1.10993 52.8899C1.19922 52.9726 1.31022 53.0281 1.42993 53.0499C1.60905 53.0751 1.79081 53.0751 1.96993 53.0499C2.72993 52.9499 3.51993 52.8799 4.22993 52.7399C6.28993 52.3199 8.55993 52.1499 10.7199 51.8599C11.3499 51.7799 11.9899 51.7299 12.6399 51.6899L15.0399 52.0399L14.4899 52.0899C13.2699 52.2099 12.0699 52.3799 10.8299 52.4699C9.58993 52.5599 8.32993 52.7899 7.06993 52.9299C6.6057 52.9968 6.14512 53.0869 5.68993 53.1999C5.49993 53.1999 5.41993 53.4399 5.58993 53.5099C5.74113 53.5613 5.90033 53.585 6.05993 53.5799C6.46838 53.5607 6.87558 53.5207 7.27993 53.4599C8.74993 53.2699 10.1799 53.0299 11.6599 52.8599C13.4599 52.6599 15.2799 52.4899 17.1099 52.3399L20.3199 52.8099H20.1099C18.5699 52.8799 17.0199 52.9099 15.5199 53.0699C15.3362 53.0904 15.1571 53.1411 14.9899 53.2199C14.8599 53.2999 14.8599 53.3999 15.1199 53.4999C15.6528 53.5297 16.187 53.5297 16.7199 53.4999C17.4099 53.4999 18.1099 53.4199 18.8099 53.3999C19.8099 53.3999 20.8599 53.3399 21.8799 53.3099C21.9481 53.4728 22.0544 53.6168 22.1899 53.7299H21.5899L20.2099 53.8099C18.9999 53.8699 17.8299 54.0199 16.6199 54.0799C15.9907 54.0892 15.3641 54.1629 14.7499 54.2999C14.6599 54.2999 14.5799 54.3899 14.5799 54.4399C14.5799 54.4899 14.7599 54.5699 14.9699 54.5599L19.4199 54.3199C20.4199 54.3199 21.4699 54.1899 22.4899 54.1699C24.3299 54.1699 26.1599 54.1699 27.9899 54.1699C28.1225 54.2502 28.2749 54.2918 28.4299 54.2899H28.5499L29.0899 54.2099H29.9399C32.3099 54.3199 34.6899 54.3899 36.9899 54.6799C38.1658 54.8035 39.3342 54.9904 40.4899 55.2399L41.4899 55.4399C41.7525 55.5064 42.0274 55.5064 42.2899 55.4399C42.4499 55.3699 42.4599 55.2499 42.5299 55.1599C41.5066 54.7762 40.4376 54.5274 39.3499 54.4199L38.4099 54.3199C36.5599 54.0299 34.5899 53.9499 32.6499 53.8399H31.8599L34.9999 53.3699C35.5799 53.3699 36.1499 53.4399 36.7199 53.4999C37.3039 53.58 37.896 53.58 38.4799 53.4999C38.5699 53.3599 38.4199 53.2699 38.1099 53.2399C37.7999 53.2099 37.3399 53.1599 36.9499 53.1199L38.8199 52.8499C39.6999 52.9299 40.5699 53.0299 41.4399 53.1299C43.0099 53.2999 44.5799 53.4799 46.0499 53.7799C46.2684 53.8182 46.4887 53.8449 46.7099 53.8599C46.8137 53.8795 46.9209 53.867 47.0173 53.8241C47.1138 53.7812 47.1949 53.71 47.2499 53.6199C47.1838 53.5862 47.113 53.5626 47.0399 53.5499C45.5799 53.2199 44.0399 52.9499 42.4499 52.7399L42.5899 52.6699H42.7699L42.8599 52.4499L42.9599 52.3499C42.9892 52.326 43.016 52.2992 43.0399 52.2699L43.0999 52.2099C43.185 52.1855 43.2659 52.1485 43.3399 52.0999L45.2599 52.2899C45.5799 52.2899 45.9099 52.2899 46.2599 52.2899C46.4199 52.2899 46.5099 52.1599 46.3999 52.1099C46.0655 51.9694 45.7113 51.8817 45.3499 51.8499L43.6999 51.6299C43.7442 51.5011 43.7679 51.3661 43.7699 51.2299V51.1599L46.5399 51.6099C46.9465 51.6849 47.3634 51.6849 47.7699 51.6099C47.7599 51.3399 47.3699 51.1899 46.8399 51.0899ZM40.4099 23.6499L30.5899 23.7399C30.5569 23.6784 30.5397 23.6097 30.5399 23.5399V21.1099C30.5399 20.9499 30.6399 20.8099 30.7499 20.8199L31.5399 20.8799C31.4199 20.8799 31.3299 20.7299 31.3299 20.5599V18.1199C31.3299 17.9599 31.4199 17.8299 31.5399 17.8399H31.8099V13.6299C31.8099 13.4599 31.8999 13.3399 32.0199 13.3499L39.0199 14.1799C39.1299 14.1799 39.2099 14.3299 39.2099 14.4899V18.2099C39.2099 18.3599 39.1299 18.4699 39.0399 18.4799H39.5299C39.6299 18.4799 39.7099 18.6299 39.7099 18.7799V21.0699C39.7099 21.2199 39.6299 21.3499 39.5299 21.3399L40.2399 21.3899C40.3499 21.3899 40.4299 21.5299 40.4299 21.6899L40.4099 23.6499ZM24.5699 49.9999L23.1099 49.7899V52.8999C23.1099 53.3199 22.8799 53.6299 22.5999 53.5899C22.3199 53.5499 22.0799 53.1799 22.0799 52.7599V49.6699L8.39993 47.6699V50.4999C8.39993 50.8799 8.20993 51.1599 7.97993 51.1299H7.99993C7.75993 51.1299 7.57993 50.7599 7.57993 50.3799V47.6099L6.84993 47.4999C6.69993 47.4999 6.58993 47.1899 6.58993 46.8599C6.58993 46.5299 6.69993 46.2699 6.84993 46.2899L24.5899 48.6599C24.7699 48.6599 24.9199 49.0099 24.9199 49.3799C24.9199 49.7499 24.7499 50.0499 24.5699 49.9999ZM43.0599 43.3699V48.3699C43.0599 48.0999 42.9999 47.8399 42.9799 47.6299C42.8299 45.8699 42.6999 44.3899 42.6099 43.1199H42.8799C42.9999 43.1199 43.0599 43.2399 43.0599 43.3899V43.3699ZM37.4499 40.1099C37.5846 39.8763 37.692 39.628 37.7699 39.3699C37.8084 39.1812 37.8041 38.9862 37.7574 38.7993C37.7107 38.6124 37.6227 38.4384 37.4999 38.2899L36.9999 37.6299C36.7876 37.3339 36.6503 36.9907 36.5999 36.6299C36.5999 36.6299 36.5999 36.5399 36.5999 36.4799C36.5209 36.5547 36.4606 36.6472 36.4241 36.7497C36.3876 36.8523 36.3759 36.962 36.3899 37.0699C36.4312 37.3594 36.4879 37.6465 36.5599 37.9299C36.6342 38.1932 36.6943 38.4602 36.7399 38.7299C36.7504 38.8374 36.734 38.9458 36.6921 39.0453C36.6502 39.1448 36.5841 39.2323 36.4999 39.2999C36.4999 38.5699 36.4999 38.3699 36.1999 38.2399L35.8399 39.0999C35.5399 38.7799 35.5499 38.1999 35.8399 37.3799C35.5699 37.3799 35.1499 37.9199 34.9799 38.3799C34.839 38.6813 34.8008 39.0206 34.8713 39.3457C34.9417 39.6709 35.1169 39.9639 35.3699 40.1799C35.0301 40.1384 34.7075 40.0072 34.4351 39.7998C34.1628 39.5925 33.9504 39.3164 33.8199 38.9999C33.7191 38.6551 33.7084 38.2901 33.789 37.9399C33.8695 37.5897 34.0386 37.2661 34.2799 36.9999L34.3899 37.6699H34.4699C34.4746 37.6368 34.4746 37.6031 34.4699 37.5699C34.473 37.1097 34.6046 36.6594 34.8499 36.2699C34.9799 36.0399 35.0999 35.8099 35.2399 35.5899C35.3904 35.3931 35.4969 35.1662 35.5521 34.9247C35.6073 34.6832 35.61 34.4326 35.5599 34.1899L35.9299 34.3799C35.9562 34.1366 36.042 33.9034 36.1798 33.7011C36.3176 33.4988 36.5031 33.3335 36.7199 33.2199C36.5824 33.9001 36.6849 34.6069 37.0099 35.2199L37.0899 35.0399C37.2582 35.4195 37.5033 35.76 37.8099 36.0399C37.9803 36.1896 38.1039 36.3853 38.166 36.6034C38.2281 36.8215 38.226 37.053 38.1599 37.2699C38.1599 37.3299 38.1599 37.3999 38.1599 37.5099C38.4199 37.3599 38.4199 37.1199 38.4699 36.8999C38.6716 37.1639 38.8067 37.4725 38.864 37.7997C38.9213 38.1269 38.8989 38.4631 38.7989 38.7799C38.6989 39.0966 38.5241 39.3847 38.2893 39.6196C38.0545 39.8546 37.7666 40.0296 37.4499 40.1299V40.1099ZM40.7199 37.3899C40.5457 36.6205 40.2628 35.8797 39.8799 35.1899C40.1433 35.3343 40.4174 35.458 40.6999 35.5599V37.0099C40.7299 37.1799 40.7199 37.2999 40.7199 37.4099V37.3899ZM43.1299 51.6599L42.9999 51.8099L42.8299 51.9999C42.8007 52.0239 42.7739 52.0507 42.7499 52.0799L42.5999 52.2099V52.2999H42.5299C42.4502 52.3814 42.3436 52.4312 42.2299 52.4399C42.194 52.4502 42.1559 52.4502 42.1199 52.4399C41.9699 52.3799 41.9599 52.3599 41.8899 51.4399C41.8899 51.0899 41.8299 50.6199 41.7799 49.8899C41.7799 49.3599 41.7099 48.7699 41.6699 48.1299C41.4499 44.5999 41.1799 39.7199 41.0699 37.8099C41.0699 37.5899 41.0699 37.1399 41.0699 36.8099V35.4299C40.4099 35.1999 38.8999 34.5799 38.9099 33.4999C38.9099 32.0399 39.9899 31.6899 40.0499 30.9999C40.0704 30.8431 40.0461 30.6836 39.9799 30.5399C39.9369 30.5906 39.876 30.6228 39.8099 30.6299C39.6999 30.6299 39.6099 30.5699 39.6099 30.4899C39.6123 30.4583 39.6241 30.4281 39.6437 30.4032C39.6632 30.3783 39.6898 30.3597 39.7199 30.3499C39.6599 30.3499 40.3899 30.1999 40.2399 30.8899C40.0899 31.5799 39.2399 32.3099 39.2399 33.4899C39.2399 34.3199 40.5899 34.9799 41.2399 35.0299H41.3599C41.8599 35.0999 43.4399 34.1399 43.3599 33.2599C43.1999 32.0999 42.2799 31.4699 42.0499 30.7999C41.8199 30.1299 42.5799 30.1799 42.5499 30.1899C42.6599 30.1899 42.7499 30.2399 42.7499 30.3199C42.7499 30.3999 42.6799 30.4699 42.5699 30.4799C42.4599 30.4899 42.3699 30.4199 42.3699 30.3399C42.367 30.3096 42.3757 30.2793 42.3943 30.2552C42.4128 30.231 42.4399 30.2149 42.4699 30.2099C42.3299 30.2599 42.1299 30.4099 42.2199 30.8799C42.3499 31.5599 43.4399 31.7899 43.6199 33.2499C43.7399 34.2499 42.4499 35.0299 41.7799 35.3499L41.9499 36.7499C41.9795 36.7641 42.0041 36.7871 42.0202 36.8157C42.0363 36.8444 42.0432 36.8772 42.0399 36.9099C42.0999 38.9099 42.2299 41.6799 42.7699 47.7499C42.8299 48.3999 42.9699 49.4499 43.0899 50.2999C43.1899 51.5799 43.1899 51.5799 43.1299 51.6799V51.6599ZM42.2999 35.3099V38.1499C42.2999 37.6699 42.2999 37.2399 42.2999 36.8399C42.2992 36.7319 42.2642 36.6268 42.1999 36.5399L41.9999 35.4699L42.2999 35.3099Z" fill="#352F26"/>
<path d="M41.76 36.6098L41.62 35.3198L41.5 35.3498L41.57 36.6198L41.76 36.6098Z" fill="#352F26"/>
</g>
<defs>
<clipPath id="clip0_1936_1177">
<rect width="148.03" height="58.14" fill="white"/>
</clipPath>
</defs>
</svg>
